<?xml version="1.0" encoding="utf-8"?>
<!-- Generator: Adobe Illustrator 24.1.1, SVG Export Plug-In . SVG Version: 6.00 Build 0)  -->
<svg version="1.1" id="Capa_1" xmlns="http://www.w3.org/2000/svg" xmlns:xlink="http://www.w3.org/1999/xlink" x="0px" y="0px"
	 viewBox="0 0 72 20.4" style="enable-background:new 0 0 72 20.4;" xml:space="preserve">
<style type="text/css">
	.st0{clip-path:url(#SVGID_2_);fill:url(#SVGID_3_);}
	.st1{clip-path:url(#SVGID_5_);fill:url(#SVGID_6_);}
	.st2{fill-rule:evenodd;clip-rule:evenodd;fill:#ED264F;}
	.st3{clip-path:url(#SVGID_8_);fill:url(#SVGID_9_);}
	.st4{clip-path:url(#SVGID_11_);fill:url(#SVGID_12_);}
	.st5{clip-path:url(#SVGID_14_);fill:url(#SVGID_15_);}
	.st6{fill-rule:evenodd;clip-rule:evenodd;fill:#FFFFFF;}
	.st7{fill:#EC1651;}
</style>
<g>
	<g>
		<defs>
			<polygon id="SVGID_1_" points="0,8.9 2,17.6 5.9,20.5 5.9,15.6 			"/>
		</defs>
		<clipPath id="SVGID_2_">
			<use xlink:href="#SVGID_1_"  style="overflow:visible;"/>
		</clipPath>
		
			<linearGradient id="SVGID_3_" gradientUnits="userSpaceOnUse" x1="2.7734" y1="4.1428" x2="3.0034" y2="8.8228" gradientTransform="matrix(1 0 0 -1 0 22)">
			<stop  offset="0" style="stop-color:#ED264F"/>
			<stop  offset="1" style="stop-color:#C42C4D"/>
		</linearGradient>
		<rect y="8.9" class="st0" width="5.9" height="11.6"/>
	</g>
</g>
<g>
	<g>
		<defs>
			<polygon id="SVGID_4_" points="15.3,8.9 13.3,17.6 9.4,20.5 9.4,15.6 			"/>
		</defs>
		<clipPath id="SVGID_5_">
			<use xlink:href="#SVGID_4_"  style="overflow:visible;"/>
		</clipPath>
		
			<linearGradient id="SVGID_6_" gradientUnits="userSpaceOnUse" x1="12.1734" y1="4.1429" x2="12.4034" y2="8.8229" gradientTransform="matrix(1 0 0 -1 0 22)">
			<stop  offset="0" style="stop-color:#ED264F"/>
			<stop  offset="1" style="stop-color:#C42C4D"/>
		</linearGradient>
		<rect x="9.4" y="8.9" class="st1" width="5.9" height="11.6"/>
	</g>
</g>
<polygon class="st2" points="9.4,20.5 9.4,20.5 9.4,15.6 15.3,8.9 10.6,15.9 "/>
<polygon class="st2" points="5.9,20.5 5.9,20.5 5.9,15.6 0,8.9 4.7,15.9 "/>
<g>
	<g>
		<defs>
			<polygon id="SVGID_7_" points="7.6,0.2 9.8,8.9 7.6,13.2 5.4,8.9 			"/>
		</defs>
		<clipPath id="SVGID_8_">
			<use xlink:href="#SVGID_7_"  style="overflow:visible;"/>
		</clipPath>
		
			<linearGradient id="SVGID_9_" gradientUnits="userSpaceOnUse" x1="7.6477" y1="15.6124" x2="8.1277" y2="26.4824" gradientTransform="matrix(1 0 0 -1 0 22)">
			<stop  offset="0" style="stop-color:#ED264F"/>
			<stop  offset="1" style="stop-color:#C42C4D"/>
		</linearGradient>
		<rect x="5.4" y="0.2" class="st3" width="4.4" height="13"/>
	</g>
</g>
<g>
	<g>
		<defs>
			<polygon id="SVGID_10_" points="8.2,2.5 9.8,8.9 8.4,11.6 9.2,8.5 			"/>
		</defs>
		<clipPath id="SVGID_11_">
			<use xlink:href="#SVGID_10_"  style="overflow:visible;"/>
		</clipPath>
		
			<linearGradient id="SVGID_12_" gradientUnits="userSpaceOnUse" x1="9.02" y1="14.6202" x2="9.02" y2="10.8902" gradientTransform="matrix(1 0 0 -1 0 22)">
			<stop  offset="0" style="stop-color:#C30D42"/>
			<stop  offset="1" style="stop-color:#EC1845"/>
		</linearGradient>
		<rect x="8.2" y="2.5" class="st4" width="1.6" height="9.2"/>
	</g>
</g>
<g>
	<g>
		<defs>
			<polygon id="SVGID_13_" points="7.1,2.5 5.4,8.9 6.9,11.6 6.1,8.5 			"/>
		</defs>
		<clipPath id="SVGID_14_">
			<use xlink:href="#SVGID_13_"  style="overflow:visible;"/>
		</clipPath>
		
			<linearGradient id="SVGID_15_" gradientUnits="userSpaceOnUse" x1="6.25" y1="14.6202" x2="6.25" y2="10.8902" gradientTransform="matrix(1 0 0 -1 0 22)">
			<stop  offset="0" style="stop-color:#C30D42"/>
			<stop  offset="1" style="stop-color:#EC1845"/>
		</linearGradient>
		<rect x="5.4" y="2.5" class="st5" width="1.6" height="9.2"/>
	</g>
</g>
<path class="st6" d="M28.6,10.2c-0.5,0-0.8,0.2-0.8,0.5v2.1c0,0.3,0.3,0.5,0.8,0.5h4.5c0.5,0,0.8-0.2,0.8-0.5v-2.1
	c0-0.3-0.3-0.5-0.8-0.5H28.6z M37.6,10.2c-0.2,0-0.3,0.1-0.3,0.2v0.5c0,0.2,0.1,0.2,0.3,0.2h5.7v-0.9C43.3,10.2,37.6,10.2,37.6,10.2
	z M44.7,14.7h-1.4v-2.4H40l-2.3,2.4h-2l2.4-2.4h-0.5c-1.1,0-1.7-0.5-1.7-1.5v-0.5c0-0.9,0.6-1.4,1.7-1.4h7.1V14.7z M45.5,10.2
	c0-0.9,0.6-1.4,1.8-1.4h6.5v1.4H45.5z M45.5,12.5v-1.4h8.2v1.4H45.5z M53.7,13.4v1.4h-6.5c-1.2,0-1.7-0.5-1.8-1.4H53.7z M62.6,8.9
	v1.4h-6.5c-0.2,0-0.3,0.1-0.3,0.2v0.5c0,0.1,0.1,0.2,0.3,0.2H61c1.2,0,1.8,0.5,1.8,1.4v0.8c0,0.9-0.6,1.4-1.8,1.4h-6.5v-1.4H61
	c0.2,0,0.3-0.1,0.3-0.2v-0.5c0-0.1-0.1-0.2-0.3-0.2h-4.9c-1.2,0-1.8-0.4-1.8-1.3v-0.9c0-0.9,0.6-1.4,1.8-1.4L62.6,8.9L62.6,8.9z
	 M63.5,8.9h8.2v1.4h-3.4v4.5H67v-4.5h-3.4C63.5,10.2,63.5,8.9,63.5,8.9z M20.1,14.7h-2l2.7-2.6l-3.5-3.3h2l2.5,2.5l2.4-2.5h2
	L20.1,14.7z M28.6,14.7c-1.5,0-2.2-0.6-2.2-1.9v-2.1c0-1.3,0.7-1.9,2.2-1.9h4.5c1.5,0,2.2,0.6,2.2,1.9v2.1c0,1.2-0.7,1.9-2.2,1.9
	H28.6z"/>
<g>
	<path class="st7" d="M17.3,17H19v0.6h-1v0.7h0.9v0.6H18v0.8H19v0.6h-1.7V17z"/>
</g>
<g>
	<path class="st7" d="M22.7,17.6l-0.5,0.3c-0.1-0.1-0.2-0.4-0.5-0.4c-0.2,0-0.4,0.1-0.4,0.3c0,0.5,1.4,0.5,1.4,1.5
		c0,0.6-0.4,1-1.1,1c-0.7,0-1-0.5-1.1-0.8l0.6-0.3c0.1,0.2,0.3,0.4,0.6,0.4c0.2,0,0.4-0.1,0.4-0.3c0-0.6-1.4-0.5-1.4-1.5
		c0-0.5,0.4-0.9,1-0.9C22.3,16.9,22.6,17.4,22.7,17.6z"/>
</g>
<g>
	<path class="st7" d="M24.9,17.5h-0.8V17h2.2v0.6h-0.8v2.7h-0.7V17.5z"/>
</g>
<g>
	<path class="st7" d="M27.9,19v-2h0.7v2c0,0.4,0.2,0.7,0.7,0.7s0.7-0.3,0.7-0.7v-2h0.7v2c0,0.8-0.5,1.3-1.3,1.3
		C28.4,20.3,27.9,19.8,27.9,19z"/>
</g>
<g>
	<path class="st7" d="M32.3,17h0.9c1.1,0,1.7,0.6,1.7,1.6c0,1-0.7,1.6-1.7,1.6h-0.9V17z M33.2,19.6c0.6,0,1-0.4,1-1.1
		c0-0.7-0.4-1.1-1-1.1H33v2.1L33.2,19.6L33.2,19.6z"/>
</g>
<g>
	<path class="st7" d="M36.5,17h0.7v3.3h-0.7V17z"/>
</g>
<g>
	<path class="st7" d="M38.8,18.6c0-1,0.7-1.7,1.7-1.7s1.7,0.7,1.7,1.7c0,1-0.7,1.7-1.7,1.7S38.8,19.5,38.8,18.6z M39.5,18.6
		c0,0.6,0.4,1.1,1,1.1s1-0.5,1-1.1c0-0.6-0.4-1.1-1-1.1C39.9,17.5,39.5,18,39.5,18.6z"/>
</g>
<g>
	<path class="st7" d="M48.8,17.4l-0.4,0.4c-0.1-0.1-0.4-0.4-0.8-0.4c-0.6,0-1,0.5-1,1.1c0,0.7,0.5,1.1,1,1.1c0.5,0,0.7-0.2,0.8-0.3
		V19h-0.6v-0.6H49v1.3c-0.3,0.3-0.7,0.5-1.4,0.5c-0.9,0-1.7-0.7-1.7-1.7c0-0.9,0.7-1.7,1.7-1.7C48.2,16.9,48.7,17.2,48.8,17.4z"/>
</g>
<g>
	<path class="st7" d="M50.7,17h1c0.7,0,1.1,0.4,1.1,1c0,0.4-0.2,0.7-0.5,0.9l0.8,1.4h-0.7l-0.6-1.3h-0.3v1.3h-0.7L50.7,17L50.7,17z
		 M51.6,18.4c0.2,0,0.5-0.1,0.5-0.4c0-0.3-0.2-0.4-0.5-0.4h-0.3v0.9L51.6,18.4L51.6,18.4z"/>
</g>
<g>
	<path class="st7" d="M55.3,19.4L55,20.2h-0.7l1.2-3.3h0.7l1.2,3.3h-0.7l-0.3-0.8H55.3z M55.8,17.7l-0.4,1.2h0.8L55.8,17.7z
		 M55.8,16.1h0.7L56,16.8h-0.5L55.8,16.1z"/>
</g>
<g>
	<path class="st7" d="M58.8,17h1.7v0.6h-1v0.8h0.9v0.6h-0.9v1.3h-0.7V17z"/>
</g>
<g>
	<path class="st7" d="M62.2,17h0.7v3.3h-0.7V17z"/>
</g>
<g>
	<path class="st7" d="M64.5,18.6c0-1,0.7-1.7,1.7-1.7c0.4,0,0.8,0.1,1,0.3l-0.2,0.6c-0.2-0.1-0.4-0.3-0.8-0.3c-0.6,0-1,0.5-1,1.1
		c0,0.6,0.4,1.1,1,1.1c0.3,0,0.7-0.2,0.8-0.3l0.2,0.6c-0.2,0.1-0.5,0.3-1,0.3C65.1,20.3,64.5,19.5,64.5,18.6z"/>
</g>
<g>
	<path class="st7" d="M68.6,18.6c0-1,0.7-1.7,1.7-1.7s1.7,0.7,1.7,1.7c0,1-0.7,1.7-1.7,1.7S68.6,19.5,68.6,18.6z M69.3,18.6
		c0,0.6,0.4,1.1,1,1.1c0.6,0,1-0.5,1-1.1c0-0.6-0.4-1.1-1-1.1S69.3,18,69.3,18.6z"/>
</g>
</svg>
